<svg id="svg" version="1.1" xmlns="http://www.w3.org/2000/svg" xmlns:xlink="http://www.w3.org/1999/xlink" width="400" height="400" viewBox="0, 0, 400,400"><g id="svgg"><path id="path0" d="M192.383 20.189 C 162.089 22.818,141.642 28.287,119.727 39.623 C 114.182 42.491,111.967 43.764,104.102 48.606 C 103.027 49.268,101.182 50.522,100.000 51.393 C 98.818 52.264,96.142 54.241,94.052 55.786 C 78.736 67.108,64.147 82.094,54.047 96.877 C 27.648 135.515,18.413 181.025,27.134 229.492 C 27.482 231.426,28.000 233.799,28.286 234.766 C 28.572 235.732,29.207 237.930,29.698 239.648 C 30.189 241.367,31.047 244.092,31.604 245.703 L 32.617 248.633 32.717 219.043 L 32.817 189.453 37.112 189.453 L 41.406 189.453 41.406 179.297 L 41.406 169.141 60.742 169.141 L 80.078 169.141 80.078 179.297 L 80.078 189.453 85.352 189.453 L 90.625 189.453 90.625 162.305 L 90.625 135.156 92.728 135.156 L 94.831 135.156 94.993 131.348 C 95.215 126.128,95.688 125.231,98.301 125.079 C 100.480 124.952,101.514 123.517,100.045 122.658 C 99.478 122.327,99.483 122.288,100.098 122.278 C 100.694 122.267,100.781 121.843,100.781 118.945 L 100.781 115.625 105.078 115.576 C 107.441 115.549,109.551 115.483,109.766 115.430 C 109.980 115.376,110.332 115.310,110.547 115.283 C 110.780 115.254,110.940 113.537,110.943 111.035 C 110.951 105.641,110.820 105.802,115.072 105.941 L 118.555 106.055 118.665 110.632 L 118.775 115.209 123.157 115.319 L 127.539 115.430 127.734 119.727 L 127.930 124.023 129.492 124.503 C 130.352 124.766,131.538 125.077,132.129 125.194 L 133.203 125.406 133.203 129.812 C 133.203 134.944,133.322 135.156,136.211 135.156 L 138.281 135.156 138.281 150.000 L 138.281 164.844 141.699 164.934 C 143.579 164.983,146.523 164.997,148.242 164.963 C 149.961 164.930,154.839 164.889,159.082 164.873 L 166.797 164.844 166.797 114.464 L 166.797 64.084 169.043 63.465 C 170.278 63.125,171.904 62.604,172.656 62.308 C 173.408 62.012,175.342 61.389,176.953 60.923 C 178.564 60.457,183.662 58.849,188.281 57.348 C 192.900 55.848,197.526 54.354,198.560 54.029 L 200.440 53.437 210.083 56.573 C 215.387 58.297,222.979 60.666,226.953 61.836 L 234.180 63.964 234.279 101.513 L 234.379 139.062 245.119 139.063 L 255.859 139.063 255.859 117.019 C 255.859 95.318,255.872 94.971,256.641 94.727 C 257.277 94.524,257.422 94.136,257.422 92.623 C 257.422 87.636,259.573 84.375,262.861 84.375 L 264.844 84.375 264.844 77.588 L 264.844 70.801 265.942 70.581 C 267.322 70.305,267.937 69.015,268.241 65.757 L 268.472 63.281 270.532 63.281 C 273.924 63.281,273.828 63.429,273.828 58.189 C 273.828 51.775,272.488 52.341,287.626 52.356 C 302.927 52.371,301.683 51.893,301.953 57.869 L 302.148 62.191 304.070 62.919 C 309.584 65.008,311.445 69.989,311.685 83.301 L 311.719 85.156 314.985 85.156 L 318.252 85.156 318.525 88.574 C 318.849 92.637,319.416 95.121,320.161 95.739 C 320.611 96.113,320.703 99.807,320.703 117.605 L 320.703 139.020 332.554 139.139 L 344.405 139.258 346.049 140.398 C 346.953 141.025,348.174 142.255,348.762 143.132 C 350.073 145.088,351.355 145.415,352.017 143.962 C 352.502 142.897,353.061 142.829,353.565 143.773 C 354.056 144.693,355.859 149.517,355.859 149.911 C 355.859 150.110,358.804 150.493,362.402 150.762 C 366.001 151.030,369.033 151.335,369.141 151.439 C 369.248 151.543,369.388 173.981,369.452 201.302 L 369.569 250.977 370.543 248.633 C 373.182 242.282,376.272 230.062,377.160 222.461 C 377.286 221.387,377.555 219.717,377.759 218.750 C 378.279 216.280,379.297 200.411,379.297 194.767 C 379.297 185.040,378.517 176.926,375.972 160.156 C 374.678 151.632,370.286 136.925,366.551 128.602 C 366.042 127.467,365.625 126.473,365.625 126.393 C 365.625 126.312,364.370 123.637,362.837 120.447 C 351.035 95.902,331.330 72.204,308.789 55.447 C 304.350 52.146,302.396 50.781,302.113 50.781 C 302.006 50.781,300.651 49.930,299.103 48.889 C 297.556 47.848,295.498 46.553,294.531 46.010 C 293.564 45.467,291.447 44.234,289.826 43.268 C 262.831 27.199,222.278 17.594,192.383 20.189 M100.000 124.264 C 100.000 124.454,99.561 124.609,99.023 124.609 C 98.104 124.609,97.774 124.231,98.265 123.740 C 98.579 123.426,100.000 123.855,100.000 124.264 M68.750 311.060 C 68.750 311.127,69.321 311.698,70.020 312.329 L 71.289 313.477 70.142 312.207 C 69.072 311.024,68.750 310.758,68.750 311.060 M332.593 312.207 L 331.445 313.477 332.715 312.329 C 333.413 311.698,333.984 311.127,333.984 311.060 C 333.984 310.758,333.662 311.024,332.593 312.207 M218.457 367.847 C 218.833 367.946,219.448 367.946,219.824 367.847 C 220.200 367.749,219.893 367.669,219.141 367.669 C 218.389 367.669,218.081 367.749,218.457 367.847 M190.723 368.238 C 191.099 368.336,191.714 368.336,192.090 368.238 C 192.466 368.140,192.158 368.059,191.406 368.059 C 190.654 368.059,190.347 368.140,190.723 368.238 " stroke="none" fill="#a3ebfb" fill-rule="evenodd"></path><path id="path1" d="M220.593 172.066 C 211.277 173.985,209.948 176.190,209.996 189.648 C 210.042 202.340,210.755 203.950,218.982 209.935 C 231.710 219.193,234.375 222.862,234.375 231.126 L 234.375 233.594 231.836 233.594 L 229.297 233.594 229.297 229.908 C 229.297 227.881,229.125 225.772,228.916 225.221 L 228.535 224.219 219.150 224.219 L 209.766 224.219 209.768 232.715 C 209.771 243.854,210.220 245.249,214.657 247.870 C 219.973 251.011,241.917 251.126,250.088 248.057 C 255.194 246.139,255.859 244.144,255.859 230.768 C 255.859 215.077,255.253 213.931,242.578 205.665 C 230.996 198.112,230.454 197.512,230.161 191.903 C 229.955 187.961,230.259 187.109,231.875 187.109 C 233.220 187.109,233.868 188.460,234.173 191.901 L 234.443 194.934 245.053 194.830 L 255.664 194.727 255.664 187.109 C 255.664 175.787,255.007 174.714,246.785 172.598 C 242.585 171.517,224.992 171.160,220.593 172.066 M146.297 178.998 C 147.098 183.718,151.992 205.892,154.684 216.992 C 157.961 230.510,159.447 236.619,160.355 240.307 C 162.550 249.221,164.070 250.181,175.584 249.927 C 183.912 249.743,185.966 249.020,187.717 245.655 C 188.184 244.757,193.736 222.832,195.519 214.844 C 195.879 213.232,196.408 211.123,196.696 210.156 C 197.546 207.295,199.848 196.730,200.993 190.430 C 201.579 187.207,202.371 183.036,202.752 181.160 C 203.858 175.726,204.735 176.172,192.938 176.172 L 182.843 176.172 182.464 177.637 C 182.256 178.442,181.630 182.002,181.072 185.547 C 180.515 189.092,179.800 193.398,179.484 195.117 C 179.168 196.836,178.460 200.791,177.910 203.906 C 176.680 210.876,176.335 212.005,175.338 212.321 C 173.021 213.057,171.813 207.951,167.244 178.125 L 166.974 176.367 156.395 176.263 L 145.816 176.160 146.297 178.998 M201.944 287.207 C 201.939 289.624,201.943 308.779,201.953 329.773 L 201.970 367.945 197.176 368.068 C 194.540 368.135,196.777 368.228,202.148 368.275 C 226.481 368.484,249.087 363.967,272.440 354.228 C 280.357 350.926,293.750 343.881,297.852 340.861 C 298.496 340.386,300.254 339.231,301.758 338.295 C 303.262 337.358,305.410 335.874,306.531 334.995 C 307.653 334.117,309.762 332.523,311.219 331.452 C 321.734 323.724,336.688 308.794,344.285 298.438 C 346.856 294.933,353.623 284.931,354.262 283.691 L 354.715 282.813 278.334 282.813 L 201.953 282.813 201.944 287.207 M48.655 284.277 C 51.000 287.887,52.085 289.453,52.242 289.453 C 52.340 289.453,52.042 288.882,51.580 288.184 C 51.117 287.485,50.532 286.475,50.280 285.938 C 50.027 285.400,49.660 284.847,49.463 284.707 C 49.266 284.568,49.213 284.172,49.345 283.828 C 49.518 283.378,49.357 283.203,48.771 283.203 C 47.974 283.203,47.972 283.226,48.655 284.277 M53.186 291.016 C 53.730 291.768,55.260 293.912,56.585 295.781 C 57.910 297.650,59.174 299.290,59.394 299.426 C 59.888 299.731,53.670 291.045,52.815 290.234 C 52.475 289.912,52.642 290.264,53.186 291.016 M60.541 300.979 C 62.097 302.853,62.228 302.974,61.803 302.144 C 61.582 301.712,60.989 301.010,60.485 300.584 C 59.603 299.838,59.605 299.851,60.541 300.979 M65.686 307.217 C 79.958 323.979,100.855 340.224,119.727 349.228 C 121.230 349.946,122.593 350.599,122.754 350.680 C 122.915 350.761,123.047 350.741,123.047 350.636 C 123.047 350.531,121.685 349.794,120.020 348.999 C 111.634 344.993,98.057 336.450,90.079 330.159 C 82.001 323.790,74.756 316.972,68.017 309.397 C 63.315 304.112,61.974 302.858,65.686 307.217 M123.470 350.927 C 123.872 351.287,126.172 352.343,126.172 352.169 C 126.172 351.944,124.006 350.781,123.587 350.781 C 123.433 350.781,123.381 350.847,123.470 350.927 M128.125 353.288 C 129.092 353.788,130.322 354.312,130.859 354.453 C 131.396 354.594,130.713 354.177,129.341 353.527 C 126.414 352.138,125.584 351.976,128.125 353.288 M148.633 360.938 C 149.063 361.122,149.678 361.273,150.000 361.273 C 150.369 361.273,150.297 361.149,149.805 360.938 C 149.375 360.753,148.760 360.602,148.438 360.602 C 148.068 360.602,148.140 360.726,148.633 360.938 M157.422 363.225 C 159.038 363.752,161.197 364.086,160.547 363.709 C 160.225 363.522,159.170 363.265,158.203 363.138 C 157.050 362.986,156.781 363.016,157.422 363.225 M168.555 365.607 C 169.305 365.947,171.397 366.168,171.061 365.872 C 170.972 365.793,170.195 365.622,169.336 365.491 C 168.247 365.325,168.010 365.360,168.555 365.607 M178.613 367.066 C 178.989 367.164,179.604 367.164,179.980 367.066 C 180.356 366.968,180.049 366.888,179.297 366.888 C 178.545 366.888,178.237 366.968,178.613 367.066 M182.329 367.464 C 182.815 367.557,183.518 367.554,183.891 367.456 C 184.265 367.358,183.867 367.282,183.008 367.286 C 182.148 367.290,181.843 367.370,182.329 367.464 M187.409 367.861 C 188.111 367.948,189.166 367.946,189.753 367.857 C 190.340 367.768,189.766 367.697,188.477 367.699 C 187.188 367.701,186.707 367.774,187.409 367.861 " stroke="none" fill="#e1b931" fill-rule="evenodd"></path><path id="path2" d="M274.407 53.223 C 274.309 53.491,274.183 55.820,274.126 58.398 L 274.023 63.086 271.432 63.200 C 268.568 63.327,268.359 63.590,268.359 67.060 C 268.359 68.473,267.429 70.663,266.787 70.762 C 266.578 70.794,266.187 70.838,265.918 70.859 C 265.556 70.888,265.379 72.660,265.234 77.734 L 265.039 84.570 262.902 84.691 C 259.549 84.881,257.823 87.427,257.816 92.193 C 257.813 94.374,257.698 94.792,257.007 95.122 C 256.210 95.504,256.202 95.713,256.129 117.383 L 256.055 139.258 244.636 139.317 L 233.217 139.376 230.964 141.364 C 229.511 142.645,227.756 143.719,226.023 144.386 C 218.763 147.180,217.575 149.386,217.561 160.106 C 217.546 171.322,217.705 172.416,219.294 172.097 C 228.443 170.261,243.396 170.947,250.357 173.523 C 252.957 174.485,255.268 176.711,255.605 178.578 C 256.028 180.923,256.369 191.203,256.087 193.085 L 255.812 194.922 244.898 194.922 L 233.984 194.922 233.984 192.408 C 233.984 188.621,232.850 186.670,231.050 187.361 C 230.013 187.758,230.352 195.613,231.471 197.141 C 232.500 198.545,237.208 202.035,243.667 206.182 C 249.863 210.159,253.189 213.318,254.846 216.797 L 256.055 219.336 256.187 228.516 C 256.393 242.899,255.712 245.514,251.185 247.720 C 244.935 250.764,229.488 251.536,218.262 249.364 L 217.188 249.157 217.188 265.367 C 217.188 274.282,217.294 281.855,217.425 282.195 C 217.640 282.755,224.055 282.813,286.112 282.813 L 354.562 282.813 355.002 281.934 C 355.244 281.450,355.967 280.176,356.608 279.102 C 358.419 276.066,364.256 264.217,365.653 260.742 C 366.343 259.023,367.414 256.299,368.033 254.688 L 369.158 251.758 369.141 202.376 C 369.131 175.216,369.020 152.584,368.894 152.083 C 368.675 151.212,368.501 151.170,364.899 151.127 C 362.828 151.102,360.957 151.041,360.742 150.991 C 360.527 150.941,359.362 150.873,358.153 150.841 C 356.137 150.786,355.920 150.692,355.547 149.707 C 353.187 143.489,352.344 142.014,352.344 144.108 C 352.344 145.714,349.588 145.220,348.567 143.431 C 346.402 139.639,344.184 139.212,326.074 139.099 L 320.313 139.063 320.313 117.707 C 320.313 100.527,320.211 96.230,319.794 95.734 C 318.902 94.673,318.359 92.023,318.359 88.724 L 318.359 85.547 314.905 85.547 L 311.450 85.547 311.192 79.785 C 310.705 68.935,308.332 63.824,303.411 63.025 L 302.065 62.807 301.842 58.274 C 301.659 54.564,301.494 53.650,300.930 53.238 C 299.945 52.517,274.669 52.503,274.407 53.223 M191.016 56.724 C 180.038 60.327,173.511 62.398,170.020 63.386 L 167.188 64.187 167.188 114.715 L 167.188 165.244 152.637 165.141 L 138.086 165.039 137.984 150.341 L 137.881 135.643 135.738 135.465 C 132.932 135.232,133.028 135.411,132.879 130.094 L 132.749 125.485 131.264 125.286 C 127.754 124.815,127.553 124.528,127.428 119.820 L 127.317 115.625 122.838 115.625 L 118.359 115.625 118.359 110.938 L 118.359 106.250 114.844 106.250 L 111.328 106.250 111.328 110.938 L 111.328 115.625 106.055 115.625 L 100.781 115.625 100.781 120.508 L 100.781 125.391 98.464 125.391 C 95.668 125.391,95.689 125.351,95.352 131.250 L 95.117 135.352 93.069 135.470 L 91.021 135.588 90.921 162.618 L 90.820 189.648 85.637 189.757 C 81.694 189.840,80.414 189.747,80.292 189.367 C 80.131 188.870,79.712 176.636,79.696 171.973 L 79.688 169.531 60.749 169.531 L 41.810 169.531 41.706 179.590 L 41.602 189.648 37.391 189.759 L 33.180 189.870 33.301 220.423 L 33.422 250.977 34.818 254.492 C 38.401 263.515,41.336 270.237,43.217 273.730 C 46.322 279.498,47.409 281.486,47.809 282.129 C 48.212 282.776,52.299 282.813,124.703 282.813 L 201.172 282.813 201.144 237.012 L 201.116 191.211 200.361 194.922 C 199.084 201.190,198.026 205.896,197.066 209.570 C 196.560 211.504,195.058 217.656,193.726 223.242 C 188.389 245.632,187.946 246.902,184.829 248.734 L 183.008 249.805 174.582 249.805 L 166.156 249.805 164.562 248.750 C 161.690 246.851,161.287 245.589,154.686 217.773 C 154.023 214.980,153.142 211.289,152.729 209.570 C 151.963 206.388,150.933 201.772,148.806 191.992 C 148.152 188.984,147.287 185.117,146.883 183.398 C 145.767 178.654,145.520 176.182,146.155 176.124 C 146.443 176.098,148.789 176.095,151.367 176.119 C 153.945 176.142,158.531 176.164,161.559 176.167 L 167.062 176.172 167.512 178.809 C 167.760 180.259,168.325 183.818,168.768 186.719 C 171.601 205.259,173.148 211.849,174.711 212.035 C 176.097 212.200,176.277 211.740,177.506 204.883 C 178.084 201.660,178.893 197.178,179.303 194.922 C 179.714 192.666,180.239 189.590,180.471 188.086 C 182.045 177.868,182.328 176.511,182.970 176.080 C 183.206 175.922,187.397 175.791,192.285 175.787 L 201.172 175.781 201.172 114.844 L 201.172 53.906 200.293 53.937 C 199.810 53.953,195.635 55.208,191.016 56.724 M217.578 216.752 L 217.578 224.219 223.235 224.219 L 228.891 224.219 229.192 225.293 C 229.357 225.884,229.450 227.993,229.398 229.980 L 229.303 233.594 231.694 233.594 L 234.085 233.594 233.911 229.373 C 233.624 222.407,229.138 216.704,218.652 209.975 L 217.578 209.285 217.578 216.752 " stroke="none" fill="#2e4e75" fill-rule="evenodd"></path><path id="path3" d="M227.441 171.385 C 229.321 171.456,232.397 171.456,234.277 171.385 C 236.157 171.313,234.619 171.254,230.859 171.254 C 227.100 171.254,225.562 171.313,227.441 171.385 M187.598 176.073 C 190.122 176.141,194.253 176.141,196.777 176.073 C 199.302 176.005,197.236 175.949,192.188 175.949 C 187.139 175.949,185.073 176.005,187.598 176.073 M146.539 182.031 C 146.539 182.354,146.690 182.969,146.875 183.398 C 147.087 183.891,147.211 183.963,147.211 183.594 C 147.211 183.271,147.060 182.656,146.875 182.227 C 146.663 181.734,146.539 181.662,146.539 182.031 M256.002 186.914 C 256.003 189.063,256.069 189.892,256.148 188.756 C 256.227 187.621,256.226 185.863,256.146 184.850 C 256.066 183.837,256.001 184.766,256.002 186.914 M256.028 230.273 C 256.028 235.430,256.084 237.485,256.151 234.841 C 256.219 232.197,256.219 227.978,256.151 225.466 C 256.083 222.954,256.028 225.117,256.028 230.273 M231.348 250.679 C 232.583 250.757,234.604 250.757,235.840 250.679 C 237.075 250.602,236.064 250.538,233.594 250.538 C 231.123 250.538,230.112 250.602,231.348 250.679 M48.688 283.083 C 49.295 283.201,49.470 283.456,49.326 284.006 C 49.217 284.424,49.324 284.766,49.564 284.766 C 49.804 284.766,50.000 284.985,50.001 285.254 C 50.003 286.391,58.750 298.638,63.818 304.597 C 72.565 314.884,80.494 322.602,90.079 330.159 C 99.072 337.250,110.999 344.608,122.870 350.388 C 136.896 357.217,149.337 361.396,165.430 364.684 C 174.705 366.579,182.882 367.486,193.853 367.835 L 201.964 368.093 201.945 325.453 L 201.925 282.813 124.888 282.866 C 82.518 282.895,48.228 282.993,48.688 283.083 " stroke="none" fill="#816b2e" fill-rule="evenodd"></path><path id="path4" d="M279.297 52.621 C 290.593 52.896,300.692 52.904,300.526 52.637 C 300.426 52.476,294.598 52.382,287.575 52.428 C 280.551 52.474,276.826 52.561,279.297 52.621 M200.293 53.791 L 201.172 53.961 201.172 115.066 L 201.172 176.172 202.107 176.172 C 203.144 176.172,203.611 176.965,203.331 178.254 C 203.230 178.720,203.065 179.629,202.964 180.273 C 202.864 180.918,202.418 183.261,201.973 185.481 C 201.529 187.701,201.257 189.666,201.370 189.848 C 201.483 190.031,201.441 190.264,201.276 190.365 C 201.111 190.467,201.022 211.309,201.077 236.681 L 201.178 282.812 209.281 282.813 L 217.383 282.813 217.383 265.846 L 217.383 248.879 216.112 248.640 C 214.194 248.280,210.589 244.739,210.141 242.773 C 209.945 241.914,209.780 237.388,209.775 232.715 L 209.766 224.219 213.672 224.219 L 217.578 224.219 217.578 216.774 C 217.578 210.946,217.684 209.383,218.066 209.576 C 218.335 209.712,218.027 209.421,217.383 208.930 C 214.871 207.014,212.913 204.771,211.497 202.188 L 210.020 199.493 209.991 189.883 C 209.952 177.527,210.425 176.226,215.929 173.541 L 218.175 172.445 217.893 170.891 C 217.130 166.675,217.530 151.935,218.452 150.270 C 219.674 148.065,222.823 145.617,226.023 144.386 C 227.756 143.719,229.511 142.645,230.964 141.364 L 233.217 139.376 244.636 139.317 L 256.055 139.258 256.060 117.676 L 256.065 96.094 255.959 117.578 L 255.853 139.063 245.116 139.063 L 234.379 139.063 234.279 101.513 L 234.180 63.964 226.953 61.837 C 222.979 60.667,215.445 58.316,210.212 56.613 C 204.980 54.909,200.409 53.540,200.056 53.569 C 199.694 53.599,199.797 53.696,200.293 53.791 M273.912 58.073 C 273.852 61.444,273.686 62.883,273.340 63.023 C 272.957 63.177,272.960 63.226,273.352 63.250 C 274.147 63.299,274.254 62.540,274.120 57.789 L 273.995 53.320 273.912 58.073 M301.653 55.078 C 301.653 55.830,301.734 56.138,301.832 55.762 C 301.930 55.386,301.930 54.771,301.832 54.395 C 301.734 54.019,301.653 54.326,301.653 55.078 M195.117 55.078 C 194.625 55.290,194.553 55.414,194.922 55.414 C 195.244 55.414,195.859 55.263,196.289 55.078 C 196.781 54.867,196.854 54.742,196.484 54.742 C 196.162 54.742,195.547 54.893,195.117 55.078 M172.656 62.305 C 171.380 63.034,171.827 63.042,173.490 62.320 C 174.213 62.006,174.541 61.749,174.219 61.748 C 173.896 61.747,173.193 61.998,172.656 62.305 M305.273 63.532 C 307.262 65.297,307.995 65.812,307.228 64.905 C 306.802 64.402,306.101 63.809,305.668 63.588 C 305.236 63.367,305.059 63.342,305.273 63.532 M166.797 114.445 L 166.797 164.828 158.887 164.942 L 150.977 165.056 159.082 165.145 L 167.188 165.234 167.188 114.648 C 167.188 86.826,167.100 64.063,166.992 64.063 C 166.885 64.063,166.797 86.735,166.797 114.445 M268.014 67.462 C 267.943 68.818,267.138 70.275,266.318 70.536 C 265.904 70.667,265.652 70.861,265.757 70.966 C 266.557 71.765,268.613 68.746,268.244 67.316 C 268.092 66.729,268.051 66.755,268.014 67.462 M308.998 67.240 C 308.991 67.377,309.241 68.080,309.555 68.803 C 309.869 69.526,310.126 69.854,310.127 69.531 C 310.129 68.968,309.027 66.732,308.998 67.240 M264.931 77.421 L 264.844 84.334 262.793 84.478 L 260.742 84.621 262.805 84.693 C 265.395 84.784,265.279 85.160,265.136 77.134 L 265.019 70.508 264.931 77.421 M310.974 75.586 C 310.961 76.660,311.098 77.774,311.280 78.060 C 311.473 78.365,311.539 77.717,311.438 76.498 C 311.202 73.636,311.004 73.247,310.974 75.586 M311.403 82.910 L 311.328 85.547 314.941 85.467 L 318.555 85.386 315.155 85.256 L 311.755 85.126 311.617 82.700 L 311.479 80.273 311.403 82.910 M259.681 85.449 C 258.815 86.442,258.104 87.922,258.367 88.184 C 258.492 88.309,258.594 88.231,258.594 88.010 C 258.594 87.790,259.028 86.969,259.559 86.187 C 260.594 84.662,260.647 84.342,259.681 85.449 M318.387 90.658 C 318.402 91.606,318.561 92.734,318.740 93.164 C 318.937 93.636,318.982 93.017,318.854 91.602 C 318.599 88.779,318.349 88.275,318.387 90.658 M257.422 92.356 C 257.422 94.136,257.296 94.519,256.641 94.727 C 256.211 94.863,255.859 95.122,255.859 95.302 C 255.859 95.482,256.297 95.426,256.833 95.178 C 257.722 94.766,258.441 90.234,257.617 90.234 C 257.510 90.234,257.422 91.189,257.422 92.356 M319.171 94.581 C 319.155 94.931,319.404 95.436,319.727 95.703 C 320.232 96.123,320.325 99.137,320.407 117.724 L 320.501 139.258 320.605 117.808 C 320.692 100.034,320.618 96.252,320.172 95.738 C 319.875 95.396,319.536 94.854,319.418 94.531 C 319.238 94.041,319.197 94.050,319.171 94.581 M114.941 106.145 L 118.359 106.279 118.359 110.952 L 118.359 115.625 122.852 115.625 L 127.344 115.625 127.344 119.648 C 127.344 123.525,127.633 124.609,128.668 124.609 C 128.881 124.609,128.762 124.390,128.404 124.121 C 127.882 123.730,127.731 122.820,127.646 119.531 L 127.539 115.430 123.157 115.319 L 118.775 115.209 118.665 110.632 L 118.555 106.055 115.039 106.033 L 111.523 106.011 114.941 106.145 M110.938 110.905 C 110.938 113.951,110.798 115.226,110.449 115.366 C 110.158 115.484,110.236 115.576,110.645 115.594 C 111.258 115.622,111.328 115.162,111.328 111.133 C 111.328 108.662,111.240 106.641,111.133 106.641 C 111.025 106.641,110.938 108.560,110.938 110.905 M98.265 123.740 C 97.774 124.231,98.104 124.609,99.023 124.609 C 99.561 124.609,100.000 124.454,100.000 124.264 C 100.000 123.855,98.579 123.426,98.265 123.740 M100.391 124.198 C 100.391 124.838,100.063 124.982,98.340 125.103 L 96.289 125.246 98.535 125.318 C 100.690 125.388,100.781 125.351,100.781 124.414 C 100.781 123.877,100.693 123.438,100.586 123.438 C 100.479 123.438,100.391 123.780,100.391 124.198 M132.960 129.688 C 132.960 132.158,133.024 133.169,133.101 131.934 C 133.179 130.698,133.179 128.677,133.101 127.441 C 133.024 126.206,132.960 127.217,132.960 129.688 M95.169 128.160 C 95.033 128.839,94.922 130.691,94.922 132.275 L 94.922 135.156 92.773 135.156 L 90.625 135.156 90.625 162.293 L 90.625 189.430 85.449 189.558 L 80.273 189.685 85.547 189.667 L 90.820 189.648 90.921 162.618 L 91.021 135.588 93.069 135.470 L 95.117 135.352 95.353 131.250 C 95.605 126.876,95.564 126.186,95.169 128.160 M136.030 135.443 L 137.881 135.589 137.984 150.314 L 138.086 165.039 141.406 165.062 L 144.727 165.085 141.504 164.949 L 138.281 164.813 138.281 149.985 L 138.281 135.156 136.230 135.227 L 134.180 135.297 136.030 135.443 M336.051 139.353 C 337.511 139.428,339.796 139.427,341.130 139.351 C 342.463 139.275,341.270 139.214,338.477 139.214 C 335.684 139.215,334.592 139.277,336.051 139.353 M344.769 140.012 C 345.437 140.303,346.618 141.176,347.394 141.951 C 348.170 142.727,348.700 143.089,348.572 142.755 C 348.251 141.919,344.952 139.450,344.182 139.468 C 343.837 139.477,344.101 139.722,344.769 140.012 M352.832 143.391 C 353.208 143.610,353.530 144.088,353.546 144.453 C 353.566 144.881,353.649 144.939,353.779 144.616 C 354.012 144.034,353.233 142.963,352.589 142.981 C 352.347 142.987,352.456 143.172,352.832 143.391 M353.934 145.508 C 353.934 145.723,354.185 146.338,354.492 146.875 C 354.799 147.412,355.050 147.676,355.050 147.461 C 355.050 147.246,354.799 146.631,354.492 146.094 C 354.185 145.557,353.934 145.293,353.934 145.508 M356.055 150.587 C 356.949 150.896,360.932 151.019,360.466 150.723 C 360.188 150.547,358.994 150.414,357.813 150.427 C 356.631 150.441,355.840 150.513,356.055 150.587 M362.207 151.061 C 362.798 151.151,363.765 151.151,364.355 151.061 C 364.946 150.972,364.463 150.898,363.281 150.898 C 362.100 150.898,361.616 150.972,362.207 151.061 M369.044 188.002 C 369.098 208.244,369.189 229.727,369.246 235.742 C 369.302 241.758,369.377 225.498,369.412 199.609 C 369.448 173.721,369.357 152.238,369.211 151.870 C 369.065 151.501,368.990 167.761,369.044 188.002 M41.406 179.297 L 41.406 189.453 37.109 189.453 L 32.813 189.453 32.840 219.434 C 32.855 235.923,32.987 249.715,33.133 250.084 C 33.279 250.452,33.350 237.055,33.292 220.312 L 33.185 189.870 37.393 189.759 L 41.602 189.648 41.706 179.590 L 41.810 169.531 60.736 169.531 L 79.663 169.531 79.786 174.121 L 79.910 178.711 79.994 173.926 L 80.078 169.141 60.742 169.141 L 41.406 169.141 41.406 179.297 M230.209 190.625 C 230.209 192.236,230.278 192.896,230.363 192.090 C 230.447 191.284,230.447 189.966,230.363 189.160 C 230.278 188.354,230.209 189.014,230.209 190.625 M229.403 228.516 C 229.403 229.482,229.479 229.878,229.573 229.395 C 229.666 228.911,229.666 228.120,229.573 227.637 C 229.479 227.153,229.403 227.549,229.403 228.516 M234.075 232.031 C 234.075 232.783,234.155 233.091,234.254 232.715 C 234.352 232.339,234.352 231.724,234.254 231.348 C 234.155 230.972,234.075 231.279,234.075 232.031 M369.247 250.391 C 369.247 251.357,369.323 251.753,369.416 251.270 C 369.509 250.786,369.509 249.995,369.416 249.512 C 369.323 249.028,369.247 249.424,369.247 250.391 M355.667 280.695 C 355.090 281.678,354.683 282.548,354.762 282.626 C 354.840 282.705,355.393 281.900,355.991 280.838 C 357.358 278.406,357.080 278.283,355.667 280.695 M46.919 281.246 C 47.401 282.103,47.859 282.740,47.937 282.662 C 48.105 282.494,46.490 279.688,46.225 279.688 C 46.126 279.688,46.438 280.389,46.919 281.246 " stroke="none" fill="#5482a9" fill-rule="evenodd"></path></g></svg>